<?xml version="1.0" encoding="utf-8"?>
<!-- Generator: Adobe Illustrator 23.1.1, SVG Export Plug-In . SVG Version: 6.00 Build 0)  -->
<svg version="1.1" id="Layer_1" xmlns="http://www.w3.org/2000/svg" xmlns:xlink="http://www.w3.org/1999/xlink" x="0px" y="0px"
	 viewBox="0 0 1539 865.7" style="enable-background:new 0 0 1539 865.7;" xml:space="preserve">
<style type="text/css">
	.st0{fill:none;stroke:#B09E70;stroke-width:0.75;stroke-miterlimit:10;}
	.st1{font-family:'iAWriterDuospace-Regular';}
	.st2{font-size:13px;}
	.st3{fill:#8A3D2B;}
	.st4{font-size:12px;}
	.st5{fill:none;stroke:#B09E70;stroke-width:0.75;stroke-miterlimit:10;stroke-dasharray:3,4;}
	.st6{fill:url(#SVGID_1_);}
	.st7{fill:url(#SVGID_2_);}
	.st8{fill:none;stroke:#8A3D2B;stroke-miterlimit:10;}
	.st9{fill:url(#SVGID_3_);}
	.st10{fill:url(#SVGID_4_);}
	.st11{fill:url(#SVGID_5_);}
	.st12{fill:url(#SVGID_6_);}
	.st13{fill:url(#SVGID_7_);}
	.st14{fill:url(#SVGID_8_);}
	.st15{fill:url(#SVGID_9_);}
	.st16{fill:#B09E70;}
	.st17{fill:none;}
	.st18{font-size:18px;}
</style>
<g id="Livello_1">
	<path class="st0" d="M135.6,141.6h2.2V47.2V47h-2.2"/>
	<path class="st0" d="M135.6,110.1h2.2"/>
	<path class="st0" d="M135.6,78.5h2.2"/>
	<g>
		<g>
			<path class="st0" d="M135.6,210.9h2.2"/>
			<path class="st0" d="M135.6,179.4h2.2"/>
			<path class="st0" d="M135.6,242.5h2.2v-94.6h-2.2"/>
		</g>
	</g>
	<text transform="matrix(1 0 0 1 35.2445 146.993)" class="st1 st2">n di persone</text>
	<text transform="matrix(1 0 0 1 60.5105 275.5891)" class="st1 st2">picchi di</text>
	<text transform="matrix(1 0 0 1 60.5105 291.1891)" class="st1 st2">utilizzo</text>
	<g>
		<text transform="matrix(1 0 0 1 60.5106 325.9512)" class="st1 st2">direzione</text>
	</g>
	<text transform="matrix(1 0 0 1 100.0438 109.3684)" class="st1 st2">500</text>
	<text transform="matrix(1 0 0 1 100.0438 178.3684)" class="st1 st2">500</text>
	<text transform="matrix(1 0 0 1 96.3734 78.212)" class="st1 st2">1000</text>
	<text transform="matrix(1 0 0 1 96.3734 210.212)" class="st1 st2">1000</text>
	<text transform="matrix(1 0 0 1 96.5101 46.6639)" class="st1 st2">1500</text>
	<text transform="matrix(1 0 0 1 96.5101 241.9968)" class="st1 st2">1500</text>
	<text transform="matrix(0.9514 0 0 1 507.0273 15.3915)" class="st3 st1 st2">06.00</text>
	<g>
		<text transform="matrix(0.9514 0 0 1 563.9473 15.3915)" class="st3 st1 st2">07.00</text>
	</g>
	<g>
		<text transform="matrix(0.9514 0 0 1 791.6289 15.3915)" class="st3 st1 st2">11.00</text>
	</g>
	<g>
		<text transform="matrix(0.9514 0 0 1 905.4688 15.3915)" class="st3 st1 st2">13.00</text>
	</g>
	<g>
		<text transform="matrix(0.9514 0 0 1 1019.3096 15.3915)" class="st3 st1 st2">15.00</text>
	</g>
	<g>
		<text transform="matrix(0.9514 0 0 1 1076.2295 15.3915)" class="st3 st1 st2">16.00</text>
	</g>
	<text transform="matrix(0.9514 0 0 1 513.0273 832.307)" class="st3 st1 st2">219 Persone</text>
	<text transform="matrix(0.9514 0 0 1 513.0273 756.0043)" class="st3 st1 st2">369 Persone</text>
	<text transform="matrix(0.9514 0 0 1 798.6289 727.9554)" class="st3 st1 st4">1527 Persone</text>
	<text transform="matrix(0.9514 0 0 1 798.6289 531.183)" class="st3 st1 st4">971 Persone</text>
	<text transform="matrix(0.9514 0 0 1 798.6289 499.183)" class="st3 st1 st4">1554 Persone</text>
	<text transform="matrix(0.9514 0 0 1 798.6289 271.2089)" class="st3 st1 st4">928 Persone</text>
	<text transform="matrix(0.9514 0 0 1 1082.2295 242.5878)" class="st3 st1 st4">1166 Persone</text>
	<text transform="matrix(0.9514 0 0 1 1082.2295 59.8226)" class="st3 st1 st4">1074 Persone</text>
</g>
<g id="Livello_3">
	<g>
		<g>
			<line class="st5" x1="507" y1="818.1" x2="507" y2="823.1"/>
			<line class="st5" x1="507" y1="826.7" x2="507" y2="849.9"/>
			<line class="st5" x1="507" y1="851.7" x2="507" y2="856.7"/>
		</g>
	</g>
	<g>
		<g>
			<line class="st5" x1="905.2" y1="817.4" x2="905.2" y2="822.4"/>
			<line class="st5" x1="905.2" y1="826.1" x2="905.2" y2="849.8"/>
			<line class="st5" x1="905.2" y1="851.7" x2="905.2" y2="856.7"/>
		</g>
	</g>
	<g>
		<g>
			<line class="st5" x1="1019" y1="817.5" x2="1019" y2="822.5"/>
			<line class="st5" x1="1019" y1="826.2" x2="1019" y2="849.8"/>
			<line class="st5" x1="1019" y1="851.7" x2="1019" y2="856.7"/>
		</g>
	</g>
	
		<linearGradient id="SVGID_1_" gradientUnits="userSpaceOnUse" x1="165.5" y1="83.24" x2="1474.3004" y2="83.24" gradientTransform="matrix(1 0 0 -1 0 863.89)">
		<stop  offset="0" style="stop-color:#FBCAAB"/>
		<stop  offset="1" style="stop-color:#F06155"/>
	</linearGradient>
	<path class="st6" d="M165.5,791.9l56.9,0.3l56.9,0.1l56.9-0.6l56.9-1.6l56.9-8.8l57-12.3l56.9,1.8l56.9,5l56.9-1l56.9-1.4l56.9,0.2
		l56.9,0.4l56.9,0.8l56.9,2.1l56.9-4.5l56.9-0.1l56.9,1.3l56.9,5.1l56.9,4l56.9,3.8l56.9,2.7l56.9,1.3l56.9,0.7v1.1H165.5V791.9z"/>
	
		<linearGradient id="SVGID_2_" gradientUnits="userSpaceOnUse" x1="1474.7" y1="58.64" x2="165.5" y2="58.64" gradientTransform="matrix(1 0 0 -1 0 863.89)">
		<stop  offset="0" style="stop-color:#FBCAAB"/>
		<stop  offset="1" style="stop-color:#F06155"/>
	</linearGradient>
	<path class="st7" d="M165.5,798.3h1309.2v0.8l-56.9,0.4l-56.9,1.8l-56.9,2.5l-57,0.2l-56.9,3.4l-56.9,2.5l-56.9,0.4l-56.9,1.3
		l-56.9-1.2l-56.9,1l-56.9-2l-56.9-1.8l-56.9-0.8l-56.9,2.5l-56.9-1.1l-56.9,2.4l-56.9,1.6l-56.9-7.7l-56.9-5.2l-56.9-0.8h-56.9
		l-56.9,0.1l-56.9,0.1v-0.4H165.5z"/>
	<circle class="st8" cx="1019.4" cy="772.4" r="6"/>
	<circle class="st8" cx="1019.4" cy="811.6" r="6"/>
	<circle class="st8" cx="905.2" cy="811.4" r="6"/>
	<ellipse transform="matrix(0.1602 -0.9871 0.9871 0.1602 -333.1987 1146.3717)" class="st8" cx="507.1" cy="769" rx="6" ry="6"/>
	<ellipse transform="matrix(0.1602 -0.9871 0.9871 0.1602 -375.7422 1182.5679)" class="st8" cx="507.1" cy="812.1" rx="6" ry="6"/>
	<g>
		<g>
			<line class="st5" x1="1076.2" y1="778.2" x2="1076.2" y2="783.2"/>
			<line class="st5" x1="1076.2" y1="786.9" x2="1076.2" y2="849.8"/>
			<line class="st5" x1="1076.2" y1="851.7" x2="1076.2" y2="856.7"/>
		</g>
	</g>
	<g>
		<g>
			<line class="st5" x1="792" y1="713.8" x2="792" y2="718.8"/>
			<line class="st5" x1="792" y1="722.9" x2="792" y2="849.6"/>
			<line class="st5" x1="792" y1="851.7" x2="792" y2="856.7"/>
		</g>
	</g>
	<g>
		<g>
			<line class="st5" x1="564" y1="690.3" x2="564" y2="695.3"/>
			<line class="st5" x1="564" y1="699.2" x2="564" y2="849.7"/>
			<line class="st5" x1="564" y1="851.7" x2="564" y2="856.7"/>
		</g>
	</g>
	<g>
		
			<linearGradient id="SVGID_3_" gradientUnits="userSpaceOnUse" x1="1474.7" y1="433.59" x2="165.5" y2="433.59" gradientTransform="matrix(1 0 0 -1 0 863.89)">
			<stop  offset="0" style="stop-color:#FBCAAB"/>
			<stop  offset="1" style="stop-color:#F06155"/>
		</linearGradient>
		<path class="st9" d="M165.5,381.3h1309.2v11.6l-56.9,4.9l-56.9,6.8l-56.9,9l-56.9,10.2l-56.9,12.7l-56.9,23.3l-56.9,15.5
			l-56.9-6.1l-56.9-3.8l-56.9,5.8l-56.9,3.5l-56.9,4.6l-56.9-5l-56.9-9.8l-56.9-6.9l-56.9,5L507,455l-56.9-38.9l-56.9-22l-56.9-4.9
			l-56.9-7.3l-56.9,5.4l-56.9,2.1v-8.1H165.5z"/>
		
			<linearGradient id="SVGID_4_" gradientUnits="userSpaceOnUse" x1="165.5" y1="533.64" x2="1474.2003" y2="533.64" gradientTransform="matrix(1 0 0 -1 0 863.89)">
			<stop  offset="0" style="stop-color:#FBCAAB"/>
			<stop  offset="1" style="stop-color:#F06155"/>
		</linearGradient>
		<path class="st10" d="M165.5,368.1l56.9,1.7l56.9,4.7l56.9-8.8l56.9-2.5l56.9-15.3l56.9-25.5l56.9-12.7l56.9,6.2l56.9-15.5
			l56.9-4.2l56.9-11l56.9,4.8l56.9,8.7l56.9,0.1l56.9-5.6l56.9-3.7l56.9,3.2l56.9,25.6l56.9,14.5l56.9,11.1l56.9,10.1l56.9,6.7
			l56.9,2.4v12.2H165.5V368.1z"/>
		<circle class="st8" cx="563.9" cy="309.8" r="6"/>
		<circle class="st8" cx="1076.5" cy="289.5" r="6"/>
		<circle class="st8" cx="1076.5" cy="475.7" r="6"/>
		<circle class="st8" cx="791.6" cy="285.2" r="6"/>
		<circle class="st8" cx="791.5" cy="479.4" r="6"/>
		<circle class="st8" cx="563.9" cy="462.6" r="6"/>
	</g>
	<g>
		
			<linearGradient id="SVGID_5_" gradientUnits="userSpaceOnUse" x1="1474.7" y1="679.39" x2="165.5" y2="679.39" gradientTransform="matrix(1 0 0 -1 0 863.89)">
			<stop  offset="0" style="stop-color:#FBCAAB"/>
			<stop  offset="1" style="stop-color:#F06155"/>
		</linearGradient>
		<path class="st11" d="M165.5,147.8h1309.2v9.9l-56.9,2l-56.9,5.6l-56.9,8.6l-56.9,6.1l-56.9,10.5l-56.9,25.3l-56.9,5.4l-56.9-5.2
			l-56.9-6.2l-56.9,1.6l-56.9,4.4l-56.9,5.2L735,210.1l-56.9-1.3l-56.9-0.3L564.3,219L507,208.2l-56.9-30.9l-56.9-20.1l-56.9-2.7
			l-56.9-5.4l-56.9,2l-56.9,2.7v-6H165.5z"/>
		
			<linearGradient id="SVGID_6_" gradientUnits="userSpaceOnUse" x1="165.5" y1="756.24" x2="1474.2003" y2="756.24" gradientTransform="matrix(1 0 0 -1 0 863.89)">
			<stop  offset="0" style="stop-color:#FBCAAB"/>
			<stop  offset="1" style="stop-color:#F06155"/>
		</linearGradient>
		<path class="st12" d="M165.5,137.6l56.9,0.3l56.9,2.8l56.9-4l56.9-2.1l56.9-10l56.9-17.5l56.9-10.6l56.9,0.1l56.9-4.6l56.9-7.3
			l56.9-4.7l56.9,2.1l56.9,5.6l56.9,1.6l56.9-4.5l56.9-11l56.9,6.2l56.9,19.3l56.9,10.5l56.9,10.2l56.9,7.3l56.9,3.8l56.9,3.3v7.1
			H165.5V137.6z"/>
		<circle class="st8" cx="1076.2" cy="73.8" r="6"/>
		<circle class="st8" cx="563.9" cy="96.5" r="6"/>
		<circle class="st8" cx="791.6" cy="80" r="6"/>
		<circle class="st8" cx="1076.2" cy="221.4" r="6"/>
		<circle class="st8" cx="791.6" cy="221.1" r="6"/>
		<circle class="st8" cx="563.9" cy="219.3" r="6"/>
	</g>
	<g>
		
			<linearGradient id="SVGID_7_" gradientUnits="userSpaceOnUse" x1="1474.7" y1="204.29" x2="165.5" y2="204.29" gradientTransform="matrix(1 0 0 -1 0 863.89)">
			<stop  offset="0" style="stop-color:#FBCAAB"/>
			<stop  offset="1" style="stop-color:#F06155"/>
		</linearGradient>
		<path class="st13" d="M165.5,611.4h1309.2v14.2l-56.9,3.8l-56.9,6.2l-56.9,8.8l-56.9,11.5l-56.9,12.1l-56.9,29.4l-56.9,6.3
			l-56.9,1.6l-56.9-3.9l-56.9-4l-56.9,8.5l-56.9,1.9l-56.9-3.3L677.8,694l-56.9-7.6l-56.9-3.5l-57-12.5L450.1,639l-56.9-16.2
			l-56.9-2.5l-56.9-7.6l-56.9,4.6l-56.9,3.3v-9.2H165.5z"/>
		
			<linearGradient id="SVGID_8_" gradientUnits="userSpaceOnUse" x1="165.5" y1="289.0901" x2="1474.2003" y2="289.0901" gradientTransform="matrix(1 0 0 -1 0 863.89)">
			<stop  offset="0" style="stop-color:#FBCAAB"/>
			<stop  offset="1" style="stop-color:#F06155"/>
		</linearGradient>
		<path class="st14" d="M165.5,600.7l56.9,1.5l56.9,3l56.9-5.2l56.9-1.4l56.9-12.4l56.9-23.4l56.9-10.4l56.9,6.8l56.9-1.2l56.9-5.6
			l56.9-8.3l56.9,5.2l56.9,3.1l56.9,4.4l56.9-5.3l56.9-4.1l56.9,5.9l56.9,15.2l56.9,9.4l56.9,7.4l56.9,5.8l56.9,5.2l56.9,2.1v7.1
			H165.5V600.7z"/>
		<circle class="st8" cx="1076.5" cy="547.2" r="6"/>
		<circle class="st8" cx="1019.4" cy="705.2" r="6"/>
		<circle class="st8" cx="792" cy="543.2" r="6"/>
		<circle class="st8" cx="792" cy="707.8" r="6"/>
		<circle class="st8" cx="563.9" cy="554.1" r="6"/>
		<circle class="st8" cx="563.9" cy="684.1" r="6"/>
	</g>
	<circle class="st8" cx="28.8" cy="279.2" r="6"/>
	
		<linearGradient id="SVGID_9_" gradientUnits="userSpaceOnUse" x1="22.8446" y1="545.64" x2="47.5037" y2="545.64" gradientTransform="matrix(1 0 0 -1 0 863.89)">
		<stop  offset="0" style="stop-color:#FBCAAB"/>
		<stop  offset="1" style="stop-color:#F06155"/>
	</linearGradient>
	<rect x="22.8" y="312.7" class="st15" width="24.7" height="11.1"/>
	<g>
		<g>
			<line class="st0" x1="22.8" y1="330.2" x2="46.3" y2="330.2"/>
			<g>
				<polygon class="st16" points="43.8,333.2 43.3,332.7 46,330.2 43.3,327.6 43.8,327.1 47.1,330.2 				"/>
			</g>
		</g>
	</g>
	<polyline class="st8" points="599,20.2 564,20.2 563.9,20.2 563.9,90.4 	"/>
	<polyline class="st8" points="826.7,20.2 791.7,20.2 791.6,20.2 791.6,73.7 	"/>
	<polyline class="st8" points="940.6,20.2 905.6,20.2 905.5,20.2 905.5,73.7 905.5,805.2 	"/>
	<polyline class="st8" points="1054.4,20.7 1019.3,20.7 1019.3,699.2 	"/>
	<line class="st8" x1="1076.2" y1="553.3" x2="1076.2" y2="765.7"/>
	<path class="st8" d="M1076.2,553.3"/>
	<line class="st8" x1="1076.2" y1="481.8" x2="1076.2" y2="541.2"/>
	<path class="st8" d="M1076.2,481.8"/>
	<line class="st8" x1="1076.2" y1="295.6" x2="1076.2" y2="469.6"/>
	<line class="st8" x1="1076.2" y1="227.4" x2="1076.2" y2="283.5"/>
	<line class="st8" x1="1076.2" y1="79.8" x2="1076.2" y2="215.4"/>
	<polyline class="st8" points="1111.3,20.7 1076.2,20.7 1076.2,67.8 	"/>
	<g>
		<g>
			<line class="st5" x1="222.6" y1="46.7" x2="222.6" y2="51.7"/>
			<line class="st5" x1="222.6" y1="55.6" x2="222.6" y2="849.7"/>
			<line class="st5" x1="222.6" y1="851.7" x2="222.6" y2="856.7"/>
		</g>
	</g>
	<g>
		<g>
			<line class="st5" x1="279.3" y1="46.7" x2="279.3" y2="51.7"/>
			<line class="st5" x1="279.3" y1="55.6" x2="279.3" y2="849.7"/>
			<line class="st5" x1="279.3" y1="851.7" x2="279.3" y2="856.7"/>
		</g>
	</g>
	<g>
		<g>
			<line class="st5" x1="336.3" y1="46.7" x2="336.3" y2="51.7"/>
			<line class="st5" x1="336.3" y1="55.6" x2="336.3" y2="849.7"/>
			<line class="st5" x1="336.3" y1="851.7" x2="336.3" y2="856.7"/>
		</g>
	</g>
	<g>
		<g>
			<line class="st5" x1="393.2" y1="46.7" x2="393.2" y2="51.7"/>
			<line class="st5" x1="393.2" y1="55.6" x2="393.2" y2="849.7"/>
			<line class="st5" x1="393.2" y1="851.7" x2="393.2" y2="856.7"/>
		</g>
	</g>
	<g>
		<g>
			<line class="st5" x1="450.1" y1="46.7" x2="450.1" y2="51.7"/>
			<line class="st5" x1="450.1" y1="55.6" x2="450.1" y2="849.7"/>
			<line class="st5" x1="450.1" y1="851.7" x2="450.1" y2="856.7"/>
		</g>
	</g>
	<g>
		<g>
			<line class="st5" x1="620.9" y1="46.7" x2="620.9" y2="51.7"/>
			<line class="st5" x1="620.9" y1="55.6" x2="620.9" y2="849.7"/>
			<line class="st5" x1="620.9" y1="851.7" x2="620.9" y2="856.7"/>
		</g>
	</g>
	<g>
		<g>
			<line class="st5" x1="677.8" y1="46.7" x2="677.8" y2="51.7"/>
			<line class="st5" x1="677.8" y1="55.6" x2="677.8" y2="849.7"/>
			<line class="st5" x1="677.8" y1="851.7" x2="677.8" y2="856.7"/>
		</g>
	</g>
	<g>
		<g>
			<line class="st5" x1="734.7" y1="46.7" x2="734.7" y2="51.7"/>
			<line class="st5" x1="734.7" y1="55.6" x2="734.7" y2="849.7"/>
			<line class="st5" x1="734.7" y1="851.7" x2="734.7" y2="856.7"/>
		</g>
	</g>
	<g>
		<g>
			<line class="st5" x1="848.5" y1="46.7" x2="848.5" y2="51.7"/>
			<line class="st5" x1="848.5" y1="55.6" x2="848.5" y2="849.7"/>
			<line class="st5" x1="848.5" y1="851.7" x2="848.5" y2="856.7"/>
		</g>
	</g>
	<g>
		<g>
			<line class="st5" x1="962.4" y1="46.7" x2="962.4" y2="51.7"/>
			<line class="st5" x1="962.4" y1="55.6" x2="962.4" y2="849.7"/>
			<line class="st5" x1="962.4" y1="851.7" x2="962.4" y2="856.7"/>
		</g>
	</g>
	<g>
		<g>
			<line class="st5" x1="1133.1" y1="46.7" x2="1133.1" y2="51.7"/>
			<line class="st5" x1="1133.1" y1="55.6" x2="1133.1" y2="849.7"/>
			<line class="st5" x1="1133.1" y1="851.7" x2="1133.1" y2="856.7"/>
		</g>
	</g>
	<g>
		<g>
			<line class="st5" x1="1190.1" y1="46.7" x2="1190.1" y2="51.7"/>
			<line class="st5" x1="1190.1" y1="55.6" x2="1190.1" y2="849.7"/>
			<line class="st5" x1="1190.1" y1="851.7" x2="1190.1" y2="856.7"/>
		</g>
	</g>
	<g>
		<g>
			<line class="st5" x1="1247" y1="46.7" x2="1247" y2="51.7"/>
			<line class="st5" x1="1247" y1="55.6" x2="1247" y2="849.7"/>
			<line class="st5" x1="1247" y1="851.7" x2="1247" y2="856.7"/>
		</g>
	</g>
	<g>
		<g>
			<line class="st5" x1="1303.9" y1="46.7" x2="1303.9" y2="51.7"/>
			<line class="st5" x1="1303.9" y1="55.6" x2="1303.9" y2="849.7"/>
			<line class="st5" x1="1303.9" y1="851.7" x2="1303.9" y2="856.7"/>
		</g>
	</g>
	<g>
		<g>
			<line class="st5" x1="1360.8" y1="46.7" x2="1360.8" y2="51.7"/>
			<line class="st5" x1="1360.8" y1="55.6" x2="1360.8" y2="849.7"/>
			<line class="st5" x1="1360.8" y1="851.7" x2="1360.8" y2="856.7"/>
		</g>
	</g>
	<g>
		<g>
			<line class="st5" x1="1417.8" y1="46.7" x2="1417.8" y2="51.7"/>
			<line class="st5" x1="1417.8" y1="55.6" x2="1417.8" y2="849.7"/>
			<line class="st5" x1="1417.8" y1="851.7" x2="1417.8" y2="856.7"/>
		</g>
	</g>
	<g>
		<g>
			<line class="st5" x1="1474.7" y1="46.7" x2="1474.7" y2="51.7"/>
			<line class="st5" x1="1474.7" y1="55.6" x2="1474.7" y2="849.7"/>
			<line class="st5" x1="1474.7" y1="851.7" x2="1474.7" y2="856.7"/>
		</g>
	</g>
	<line class="st8" x1="507" y1="806.2" x2="507" y2="775.2"/>
	<polyline class="st8" points="507,763.2 507,20.2 542,20.2 	"/>
	<line class="st8" x1="564" y1="678.2" x2="564" y2="560.2"/>
	<line class="st8" x1="564" y1="548.2" x2="564" y2="468.2"/>
	<line class="st8" x1="564" y1="456.2" x2="564" y2="316.2"/>
	<line class="st8" x1="564" y1="304.2" x2="564" y2="225.2"/>
	<line class="st8" x1="564" y1="213.2" x2="564" y2="102.2"/>
	<line class="st8" x1="792" y1="701.8" x2="792" y2="549.2"/>
	<line class="st8" x1="792" y1="537.2" x2="792" y2="485.5"/>
	<line class="st8" x1="791.5" y1="473.4" x2="791.5" y2="291.2"/>
	<line class="st8" x1="791.6" y1="279.2" x2="791.6" y2="227.1"/>
	<line class="st8" x1="791.6" y1="215.1" x2="791.6" y2="86"/>
	<path class="st8" d="M791.6,74"/>
	<line class="st8" x1="1019" y1="711.2" x2="1019" y2="766.2"/>
	<path class="st8" d="M1019,778.2"/>
	<line class="st8" x1="1019" y1="778.2" x2="1019" y2="805.2"/>
	<circle class="st8" cx="1076.2" cy="772.2" r="6"/>
	<rect x="165.5" y="47.2" class="st17" width="80.5" height="22.5"/>
	<text transform="matrix(0.9514 0 0 1 165.5059 60.4794)" class="st3 st1 st18">X 12</text>
	<rect x="165.5" y="258.2" class="st17" width="80.5" height="22.5"/>
	<text transform="matrix(0.9514 0 0 1 165.5059 271.4794)" class="st3 st1 st18">X 14</text>
	<rect x="165.5" y="519.2" class="st17" width="80.5" height="22.5"/>
	<text transform="matrix(0.9514 0 0 1 165.5059 532.4789)" class="st3 st1 st18">X 19</text>
	<rect x="165.5" y="744.2" class="st17" width="80.5" height="22.5"/>
	<text transform="matrix(0.9514 0 0 1 165.5059 757.4789)" class="st3 st1 st18">X 34</text>
</g>
</svg>
