<?xml version="1.0" encoding="utf-8"?>
<!-- Generator: Adobe Illustrator 23.1.1, SVG Export Plug-In . SVG Version: 6.00 Build 0)  -->
<svg version="1.1" id="Layer_1" xmlns="http://www.w3.org/2000/svg" xmlns:xlink="http://www.w3.org/1999/xlink" x="0px" y="0px"
	 viewBox="0 0 1463.1 865.7" style="enable-background:new 0 0 1463.1 865.7;" xml:space="preserve">
<style type="text/css">
	.st0{fill:none;stroke:#FF0000;stroke-width:0.75;stroke-miterlimit:10;}
	.st1{fill:#FFFFFF;}
	.st2{font-family:'iAWriterDuospace-Regular';}
	.st3{font-size:15px;}
	.st4{fill:none;stroke:#FFFFFF;stroke-width:0.75;stroke-miterlimit:10;stroke-dasharray:3,4;}
	.st5{fill:none;stroke:#FF00FF;stroke-miterlimit:10;}
	.st6{fill:none;stroke:#FF0000;stroke-miterlimit:10;}
	.st7{fill:none;stroke:#FF0000;stroke-width:1;stroke-miterlimit:10.0002;}
	.st8{fill:url(#SVGID_1_);}
	.st9{fill:none;stroke:#B09E70;stroke-width:0.75;stroke-miterlimit:10;}
	.st10{fill:#B09E70;}
	.st11{fill:none;}
	.st12{font-family:'HKGrotesk-Bold';}
	.st13{font-size:18px;}
	.st14{fill:url(#SVGID_2_);}
	.st15{fill:url(#SVGID_3_);}
	.st16{fill:url(#SVGID_4_);}
	.st17{fill:url(#SVGID_5_);}
	.st18{fill:url(#SVGID_6_);}
	.st19{fill:url(#SVGID_7_);}
	.st20{fill:url(#SVGID_8_);}
	.st21{fill:url(#SVGID_9_);}
	.st22{fill:url(#SVGID_10_);}
	.st23{fill:url(#SVGID_11_);}
	.st24{fill:url(#SVGID_12_);}
	.st25{fill:url(#SVGID_13_);}
	.st26{fill:url(#SVGID_14_);}
	.st27{fill:url(#SVGID_15_);}
	.st28{fill:url(#SVGID_16_);}
	.st29{fill:url(#SVGID_17_);}
	.st30{fill:url(#SVGID_18_);}
	.st31{fill:url(#SVGID_19_);}
	.st32{fill:url(#SVGID_20_);}
	.st33{fill:url(#SVGID_21_);}
	.st34{fill:url(#SVGID_22_);}
</style>
<g id="Livello_1">
	<path class="st0" d="M124,141.6h2.2V47.2V47H124"/>
	<path class="st0" d="M124,110.1h2.2"/>
	<path class="st0" d="M124,78.5h2.2"/>
	<g>
		<g>
			<path class="st0" d="M124,210.9h2.2"/>
			<path class="st0" d="M124,179.4h2.2"/>
			<path class="st0" d="M124,242.5h2.2v-94.6H124"/>
		</g>
	</g>
	<text transform="matrix(1 0 0 1 7.475 146.993)" class="st1 st2 st3">n di persone</text>
	<text transform="matrix(1 0 0 1 48.9402 275.5891)" class="st1 st2 st3">picchi di</text>
	<text transform="matrix(1 0 0 1 48.9402 291.1891)" class="st1 st2 st3">utilizzo</text>
	<g>
		<text transform="matrix(1 0 0 1 48.9403 325.9512)" class="st1 st2 st3">direzione</text>
	</g>
	<text transform="matrix(1 0 0 1 88.474 109.3684)" class="st1 st2 st3">500</text>
	<text transform="matrix(1 0 0 1 88.474 178.3684)" class="st1 st2 st3">500</text>
	<text transform="matrix(1 0 0 1 79.474 78.212)" class="st1 st2 st3">1000</text>
	<text transform="matrix(1 0 0 1 79.474 210.212)" class="st1 st2 st3">1000</text>
	<text transform="matrix(1 0 0 1 79.474 46.6639)" class="st1 st2 st3">1500</text>
	<text transform="matrix(1 0 0 1 79.474 241.9968)" class="st1 st2 st3">1500</text>
	<text transform="matrix(0.9514 0 0 1 495.4571 15.3915)" class="st1 st2 st3">06.00</text>
	<g>
		<text transform="matrix(0.9514 0 0 1 552.377 15.3915)" class="st1 st2 st3">07.00</text>
	</g>
	<g>
		<text transform="matrix(0.9514 0 0 1 780.0587 15.3915)" class="st1 st2 st3">11.00</text>
	</g>
	<g>
		<text transform="matrix(0.9514 0 0 1 893.8985 15.3915)" class="st1 st2 st3">13.00</text>
	</g>
	<g>
		<text transform="matrix(0.9514 0 0 1 1007.7393 15.3915)" class="st1 st2 st3">15.00</text>
	</g>
	<g>
		<text transform="matrix(0.9514 0 0 1 1064.6592 15.3915)" class="st1 st2 st3">16.00</text>
	</g>
	<text transform="matrix(0.9514 0 0 1 501.4571 832.307)" class="st1 st2 st3">219 Persone</text>
	<text transform="matrix(0.9514 0 0 1 501.4571 756.0043)" class="st1 st2 st3">369 Persone</text>
	<text transform="matrix(0.9514 0 0 1 787.0587 727.9554)" class="st1 st2 st3">1527 Persone</text>
	<text transform="matrix(0.9514 0 0 1 787.0587 531.183)" class="st1 st2 st3">971 Persone</text>
	<text transform="matrix(0.9514 0 0 1 787.0587 499.183)" class="st1 st2 st3">1554 Persone</text>
	<text transform="matrix(0.9514 0 0 1 787.0587 271.2089)" class="st1 st2 st3">928 Persone</text>
	<text transform="matrix(0.9514 0 0 1 1070.6592 242.5878)" class="st1 st2 st3">1166 Persone</text>
	<text transform="matrix(0.9514 0 0 1 1070.6592 59.8226)" class="st1 st2 st3">1074 Persone</text>
</g>
<g id="Livello_3">
	<g>
		<g>
			<line class="st4" x1="495.4" y1="818.1" x2="495.4" y2="823.1"/>
			<line class="st4" x1="495.4" y1="826.7" x2="495.4" y2="849.9"/>
			<line class="st4" x1="495.4" y1="851.7" x2="495.4" y2="856.7"/>
		</g>
	</g>
	<g>
		<g>
			<line class="st4" x1="893.6" y1="817.4" x2="893.6" y2="822.4"/>
			<line class="st4" x1="893.6" y1="826.1" x2="893.6" y2="849.8"/>
			<line class="st4" x1="893.6" y1="851.7" x2="893.6" y2="856.7"/>
		</g>
	</g>
	<g>
		<g>
			<line class="st4" x1="1007.4" y1="817.5" x2="1007.4" y2="822.5"/>
			<line class="st4" x1="1007.4" y1="826.2" x2="1007.4" y2="849.8"/>
			<line class="st4" x1="1007.4" y1="851.7" x2="1007.4" y2="856.7"/>
		</g>
	</g>
	<path class="st5" d="M153.9,791.9l56.9,0.3l56.9,0.1l56.9-0.6l56.9-1.6l56.9-8.8l57-12.3l56.9,1.8l56.9,5l56.9-1l56.9-1.4l56.9,0.2
		l56.9,0.4l56.9,0.8l56.9,2.1l56.9-4.5l56.9-0.1l56.9,1.3l56.9,5.1l56.9,4l56.9,3.8l56.9,2.7l56.9,1.3l56.9,0.7v1.1H153.9V791.9z"/>
	<path class="st5" d="M153.9,798.3h1309.2v0.8l-56.9,0.4l-56.9,1.8l-56.9,2.5l-57,0.2l-56.9,3.4l-56.9,2.5l-56.9,0.4l-56.9,1.3
		l-56.9-1.2l-56.9,1l-56.9-2l-56.9-1.8l-56.9-0.8l-56.9,2.5l-56.9-1.1l-56.9,2.4l-56.9,1.6l-56.9-7.7l-56.9-5.2l-56.9-0.8h-56.9
		l-56.9,0.1l-56.9,0.1v-0.4H153.9z"/>
	<circle class="st6" cx="1007.8" cy="772.4" r="6"/>
	<circle class="st6" cx="1007.8" cy="811.6" r="6"/>
	<circle class="st6" cx="893.6" cy="811.4" r="6"/>
	<ellipse transform="matrix(0.3162 -0.9487 0.9487 0.3162 -390.7055 995.9302)" class="st7" cx="495.5" cy="769" rx="6" ry="6"/>
	<ellipse transform="matrix(0.3162 -0.9487 0.9487 0.3162 -431.594 1025.4011)" class="st7" cx="495.5" cy="812.1" rx="6" ry="6"/>
	<g>
		<g>
			<line class="st4" x1="1064.6" y1="778.2" x2="1064.6" y2="783.2"/>
			<line class="st4" x1="1064.6" y1="786.9" x2="1064.6" y2="849.8"/>
			<line class="st4" x1="1064.6" y1="851.7" x2="1064.6" y2="856.7"/>
		</g>
	</g>
	<g>
		<g>
			<line class="st4" x1="780.4" y1="713.8" x2="780.4" y2="718.8"/>
			<line class="st4" x1="780.4" y1="722.9" x2="780.4" y2="849.6"/>
			<line class="st4" x1="780.4" y1="851.7" x2="780.4" y2="856.7"/>
		</g>
	</g>
	<g>
		<g>
			<line class="st4" x1="552.4" y1="690.3" x2="552.4" y2="695.3"/>
			<line class="st4" x1="552.4" y1="699.2" x2="552.4" y2="849.7"/>
			<line class="st4" x1="552.4" y1="851.7" x2="552.4" y2="856.7"/>
		</g>
	</g>
	<g>
		<path class="st5" d="M153.9,381.3h1309.2v11.6l-56.9,4.9l-56.9,6.8l-56.9,9l-56.9,10.2l-56.9,12.7l-56.9,23.3l-56.9,15.5
			l-56.9-6.1l-56.9-3.8l-56.9,5.8l-56.9,3.5l-56.9,4.6l-56.9-5l-56.9-9.8l-56.9-6.9l-56.9,5l-57.3-7.6l-56.9-38.9l-56.9-22
			l-56.9-4.9l-56.9-7.3l-56.9,5.4l-56.9,2.1v-8.1L153.9,381.3L153.9,381.3z"/>
		<path class="st5" d="M153.9,368.1l56.9,1.7l56.9,4.7l56.9-8.8l56.9-2.5l56.9-15.3l56.9-25.5l56.9-12.7l56.9,6.2l56.9-15.5
			l56.9-4.2l56.9-11l56.9,4.8l56.9,8.7l56.9,0.1l56.9-5.6l56.9-3.7l56.9,3.2l56.9,25.6l56.9,14.5l56.9,11.1l56.9,10.1l56.9,6.7
			l56.9,2.4v12.2H153.9V368.1z"/>
		<circle class="st5" cx="552.3" cy="309.8" r="6"/>
		<circle class="st5" cx="1064.9" cy="289.5" r="6"/>
		<circle class="st5" cx="1064.9" cy="475.7" r="6"/>
		<circle class="st5" cx="780" cy="285.2" r="6"/>
		<circle class="st5" cx="779.9" cy="479.4" r="6"/>
		<circle class="st5" cx="552.3" cy="462.6" r="6"/>
	</g>
	<g>
		<path class="st5" d="M153.9,147.8h1309.2v9.9l-56.9,2l-56.9,5.6l-56.9,8.6l-56.9,6.1l-56.9,10.5l-56.9,25.3l-56.9,5.4l-56.9-5.2
			l-56.9-6.2l-56.9,1.6l-56.9,4.4l-56.9,5.2l-56.9-10.9l-56.9-1.3l-56.9-0.3L552.7,219l-57.3-10.8l-56.9-30.9l-56.9-20.1l-56.9-2.7
			l-56.9-5.4l-56.9,2l-56.9,2.7v-6H153.9z"/>
		<path class="st5" d="M153.9,137.6l56.9,0.3l56.9,2.8l56.9-4l56.9-2.1l56.9-10l56.9-17.5l56.9-10.6l56.9,0.1L666,92l56.9-7.3
			l56.9-4.7l56.9,2.1l56.9,5.6l56.9,1.6l56.9-4.5l56.9-11l56.9,6.2l56.9,19.3l56.9,10.5l56.9,10.2l56.9,7.3l56.9,3.8l56.9,3.3v7.1
			H153.9V137.6z"/>
		<circle class="st5" cx="1064.6" cy="73.8" r="6"/>
		<circle class="st5" cx="552.3" cy="96.5" r="6"/>
		<circle class="st5" cx="780" cy="80" r="6"/>
		<circle class="st5" cx="1064.6" cy="221.4" r="6"/>
		<circle class="st5" cx="780" cy="221.1" r="6"/>
		<circle class="st5" cx="552.3" cy="219.3" r="6"/>
	</g>
	<g>
		<path class="st5" d="M153.9,611.4h1309.2v14.2l-56.9,3.8l-56.9,6.2l-56.9,8.8l-56.9,11.5l-56.9,12.1l-56.9,29.4l-56.9,6.3
			l-56.9,1.6l-56.9-3.9l-56.9-4l-56.9,8.5l-56.9,1.9l-56.9-3.3L666.2,694l-56.9-7.6l-56.9-3.5l-57-12.5L438.5,639l-56.9-16.2
			l-56.9-2.5l-56.9-7.6l-56.9,4.6l-56.9,3.3v-9.2L153.9,611.4L153.9,611.4z"/>
		<path class="st5" d="M153.9,600.7l56.9,1.5l56.9,3l56.9-5.2l56.9-1.4l56.9-12.4l56.9-23.4l56.9-10.4l56.9,6.8L666,558l56.9-5.6
			l56.9-8.3l56.9,5.2l56.9,3.1l56.9,4.4l56.9-5.3l56.9-4.1l56.9,5.9l56.9,15.2l56.9,9.4l56.9,7.4l56.9,5.8l56.9,5.2l56.9,2.1v7.1
			H153.9V600.7z"/>
		<circle class="st5" cx="1064.9" cy="547.2" r="6"/>
		<circle class="st5" cx="1007.8" cy="705.2" r="6"/>
		<circle class="st5" cx="780.4" cy="543.2" r="6"/>
		<circle class="st5" cx="780.4" cy="707.8" r="6"/>
		<circle class="st5" cx="552.3" cy="554.1" r="6"/>
		<circle class="st5" cx="552.3" cy="684.1" r="6"/>
	</g>
	<circle class="st6" cx="23" cy="279.2" r="10.9"/>
	
		<linearGradient id="SVGID_1_" gradientUnits="userSpaceOnUse" x1="11.2743" y1="296.25" x2="35.9334" y2="296.25" gradientTransform="matrix(1 0 0 1 0 22)">
		<stop  offset="0" style="stop-color:#FBCAAB"/>
		<stop  offset="1" style="stop-color:#F06155"/>
	</linearGradient>
	<rect x="11.2" y="312.7" class="st8" width="24.7" height="11.1"/>
	<g>
		<g>
			<line class="st9" x1="11.2" y1="330.2" x2="34.7" y2="330.2"/>
			<g>
				<polygon class="st10" points="32.2,333.2 31.7,332.7 34.4,330.2 31.7,327.6 32.2,327.1 35.5,330.2 				"/>
			</g>
		</g>
	</g>
	<polyline class="st6" points="587.4,20.2 552.4,20.2 552.3,20.2 552.3,90.4 	"/>
	<polyline class="st6" points="815.1,20.2 780.1,20.2 780,20.2 780,73.7 	"/>
	<polyline class="st6" points="929,20.2 894,20.2 893.9,20.2 893.9,73.7 893.9,805.2 	"/>
	<polyline class="st6" points="1042.8,20.7 1007.7,20.7 1007.7,699.2 	"/>
	<line class="st6" x1="1064.6" y1="553.3" x2="1064.6" y2="765.7"/>
	<path class="st6" d="M1064.6,553.3"/>
	<line class="st6" x1="1064.6" y1="481.8" x2="1064.6" y2="541.2"/>
	<path class="st6" d="M1064.6,481.8"/>
	<line class="st6" x1="1064.6" y1="295.6" x2="1064.6" y2="469.6"/>
	<line class="st6" x1="1064.6" y1="227.4" x2="1064.6" y2="283.5"/>
	<line class="st6" x1="1064.6" y1="79.8" x2="1064.6" y2="215.4"/>
	<polyline class="st6" points="1099.7,20.7 1064.6,20.7 1064.6,67.8 	"/>
	<g>
		<g>
			<line class="st4" x1="211" y1="46.7" x2="211" y2="51.7"/>
			<line class="st4" x1="211" y1="55.6" x2="211" y2="849.7"/>
			<line class="st4" x1="211" y1="851.7" x2="211" y2="856.7"/>
		</g>
	</g>
	<g>
		<g>
			<line class="st4" x1="267.7" y1="46.7" x2="267.7" y2="51.7"/>
			<line class="st4" x1="267.7" y1="55.6" x2="267.7" y2="849.7"/>
			<line class="st4" x1="267.7" y1="851.7" x2="267.7" y2="856.7"/>
		</g>
	</g>
	<g>
		<g>
			<line class="st4" x1="324.7" y1="46.7" x2="324.7" y2="51.7"/>
			<line class="st4" x1="324.7" y1="55.6" x2="324.7" y2="849.7"/>
			<line class="st4" x1="324.7" y1="851.7" x2="324.7" y2="856.7"/>
		</g>
	</g>
	<g>
		<g>
			<line class="st4" x1="381.6" y1="46.7" x2="381.6" y2="51.7"/>
			<line class="st4" x1="381.6" y1="55.6" x2="381.6" y2="849.7"/>
			<line class="st4" x1="381.6" y1="851.7" x2="381.6" y2="856.7"/>
		</g>
	</g>
	<g>
		<g>
			<line class="st4" x1="438.5" y1="46.7" x2="438.5" y2="51.7"/>
			<line class="st4" x1="438.5" y1="55.6" x2="438.5" y2="849.7"/>
			<line class="st4" x1="438.5" y1="851.7" x2="438.5" y2="856.7"/>
		</g>
	</g>
	<g>
		<g>
			<line class="st4" x1="609.3" y1="46.7" x2="609.3" y2="51.7"/>
			<line class="st4" x1="609.3" y1="55.6" x2="609.3" y2="849.7"/>
			<line class="st4" x1="609.3" y1="851.7" x2="609.3" y2="856.7"/>
		</g>
	</g>
	<g>
		<g>
			<line class="st4" x1="666.2" y1="46.7" x2="666.2" y2="51.7"/>
			<line class="st4" x1="666.2" y1="55.6" x2="666.2" y2="849.7"/>
			<line class="st4" x1="666.2" y1="851.7" x2="666.2" y2="856.7"/>
		</g>
	</g>
	<g>
		<g>
			<line class="st4" x1="723.1" y1="46.7" x2="723.1" y2="51.7"/>
			<line class="st4" x1="723.1" y1="55.6" x2="723.1" y2="849.7"/>
			<line class="st4" x1="723.1" y1="851.7" x2="723.1" y2="856.7"/>
		</g>
	</g>
	<g>
		<g>
			<line class="st4" x1="836.9" y1="46.7" x2="836.9" y2="51.7"/>
			<line class="st4" x1="836.9" y1="55.6" x2="836.9" y2="849.7"/>
			<line class="st4" x1="836.9" y1="851.7" x2="836.9" y2="856.7"/>
		</g>
	</g>
	<g>
		<g>
			<line class="st4" x1="950.8" y1="46.7" x2="950.8" y2="51.7"/>
			<line class="st4" x1="950.8" y1="55.6" x2="950.8" y2="849.7"/>
			<line class="st4" x1="950.8" y1="851.7" x2="950.8" y2="856.7"/>
		</g>
	</g>
	<g>
		<g>
			<line class="st4" x1="1121.5" y1="46.7" x2="1121.5" y2="51.7"/>
			<line class="st4" x1="1121.5" y1="55.6" x2="1121.5" y2="849.7"/>
			<line class="st4" x1="1121.5" y1="851.7" x2="1121.5" y2="856.7"/>
		</g>
	</g>
	<g>
		<g>
			<line class="st4" x1="1178.5" y1="46.7" x2="1178.5" y2="51.7"/>
			<line class="st4" x1="1178.5" y1="55.6" x2="1178.5" y2="849.7"/>
			<line class="st4" x1="1178.5" y1="851.7" x2="1178.5" y2="856.7"/>
		</g>
	</g>
	<g>
		<g>
			<line class="st4" x1="1235.4" y1="46.7" x2="1235.4" y2="51.7"/>
			<line class="st4" x1="1235.4" y1="55.6" x2="1235.4" y2="849.7"/>
			<line class="st4" x1="1235.4" y1="851.7" x2="1235.4" y2="856.7"/>
		</g>
	</g>
	<g>
		<g>
			<line class="st4" x1="1292.3" y1="46.7" x2="1292.3" y2="51.7"/>
			<line class="st4" x1="1292.3" y1="55.6" x2="1292.3" y2="849.7"/>
			<line class="st4" x1="1292.3" y1="851.7" x2="1292.3" y2="856.7"/>
		</g>
	</g>
	<g>
		<g>
			<line class="st4" x1="1349.2" y1="46.7" x2="1349.2" y2="51.7"/>
			<line class="st4" x1="1349.2" y1="55.6" x2="1349.2" y2="849.7"/>
			<line class="st4" x1="1349.2" y1="851.7" x2="1349.2" y2="856.7"/>
		</g>
	</g>
	<g>
		<g>
			<line class="st4" x1="1406.2" y1="46.7" x2="1406.2" y2="51.7"/>
			<line class="st4" x1="1406.2" y1="55.6" x2="1406.2" y2="849.7"/>
			<line class="st4" x1="1406.2" y1="851.7" x2="1406.2" y2="856.7"/>
		</g>
	</g>
	<g>
		<g>
			<line class="st4" x1="1463.1" y1="46.7" x2="1463.1" y2="51.7"/>
			<line class="st4" x1="1463.1" y1="55.6" x2="1463.1" y2="849.7"/>
			<line class="st4" x1="1463.1" y1="851.7" x2="1463.1" y2="856.7"/>
		</g>
	</g>
	<line class="st6" x1="495.4" y1="806.2" x2="495.4" y2="775.2"/>
	<polyline class="st6" points="495.4,763.2 495.4,20.2 530.4,20.2 	"/>
	<line class="st6" x1="552.4" y1="678.2" x2="552.4" y2="560.2"/>
	<line class="st6" x1="552.4" y1="548.2" x2="552.4" y2="468.2"/>
	<line class="st6" x1="552.4" y1="456.2" x2="552.4" y2="316.2"/>
	<line class="st6" x1="552.4" y1="304.2" x2="552.4" y2="225.2"/>
	<line class="st6" x1="552.4" y1="213.2" x2="552.4" y2="102.2"/>
	<line class="st6" x1="780.4" y1="701.8" x2="780.4" y2="549.2"/>
	<line class="st6" x1="780.4" y1="537.2" x2="780.4" y2="485.5"/>
	<line class="st6" x1="779.9" y1="473.4" x2="779.9" y2="291.2"/>
	<line class="st6" x1="780" y1="279.2" x2="780" y2="227.1"/>
	<line class="st6" x1="780" y1="215.1" x2="780" y2="86"/>
	<path class="st6" d="M780,74"/>
	<line class="st6" x1="1007.4" y1="711.2" x2="1007.4" y2="766.2"/>
	<path class="st6" d="M1007.4,778.2"/>
	<line class="st6" x1="1007.4" y1="778.2" x2="1007.4" y2="805.2"/>
	<circle class="st6" cx="1064.6" cy="772.2" r="6"/>
	<rect x="153.9" y="47.2" class="st11" width="80.5" height="22.5"/>
	<text transform="matrix(0.9514 0 0 1 153.9356 60.4794)" class="st1 st12 st13">X 12</text>
	<rect x="153.9" y="258.2" class="st11" width="80.5" height="22.5"/>
	<text transform="matrix(0.9514 0 0 1 153.9356 271.4794)" class="st1 st12 st13">X 14</text>
	<rect x="153.9" y="519.2" class="st11" width="80.5" height="22.5"/>
	<text transform="matrix(0.9514 0 0 1 153.9356 532.4789)" class="st1 st12 st13">X 19</text>
	<rect x="153.9" y="744.2" class="st11" width="80.5" height="22.5"/>
	<text transform="matrix(0.9514 0 0 1 153.9356 757.4789)" class="st1 st12 st13">X 34</text>
</g>
<linearGradient id="SVGID_2_" gradientUnits="userSpaceOnUse" x1="824.7255" y1="111.1919" x2="735.4071" y2="111.1919">
	<stop  offset="0" style="stop-color:#FF0000;stop-opacity:0"/>
	<stop  offset="0.5065" style="stop-color:#FF0000;stop-opacity:0.54"/>
	<stop  offset="1" style="stop-color:#FF0000;stop-opacity:0"/>
</linearGradient>
<rect x="735.4" y="80.9" class="st14" width="89.3" height="60.6"/>
<linearGradient id="SVGID_3_" gradientUnits="userSpaceOnUse" x1="824.7255" y1="184.5302" x2="735.4071" y2="184.5302">
	<stop  offset="0" style="stop-color:#FF0000;stop-opacity:0"/>
	<stop  offset="0.5065" style="stop-color:#FF0000;stop-opacity:0.54"/>
	<stop  offset="1" style="stop-color:#FF0000;stop-opacity:0"/>
</linearGradient>
<rect x="735.4" y="148.1" class="st15" width="89.3" height="72.9"/>
<linearGradient id="SVGID_4_" gradientUnits="userSpaceOnUse" x1="824.7255" y1="330.596" x2="735.4071" y2="330.596">
	<stop  offset="0" style="stop-color:#FF0000;stop-opacity:0"/>
	<stop  offset="0.5065" style="stop-color:#FF0000;stop-opacity:0.54"/>
	<stop  offset="1" style="stop-color:#FF0000;stop-opacity:0"/>
</linearGradient>
<rect x="735.4" y="285.9" class="st16" width="89.3" height="89.4"/>
<linearGradient id="SVGID_5_" gradientUnits="userSpaceOnUse" x1="824.7255" y1="430.3" x2="735.4071" y2="430.3">
	<stop  offset="0" style="stop-color:#FF0000;stop-opacity:0"/>
	<stop  offset="0.5065" style="stop-color:#FF0000;stop-opacity:0.54"/>
	<stop  offset="1" style="stop-color:#FF0000;stop-opacity:0"/>
</linearGradient>
<rect x="735.4" y="381.3" class="st17" width="89.3" height="98"/>
<linearGradient id="SVGID_6_" gradientUnits="userSpaceOnUse" x1="824.7255" y1="574.1271" x2="735.4071" y2="574.1271">
	<stop  offset="0" style="stop-color:#FF0000;stop-opacity:0"/>
	<stop  offset="0.5065" style="stop-color:#FF0000;stop-opacity:0.54"/>
	<stop  offset="1" style="stop-color:#FF0000;stop-opacity:0"/>
</linearGradient>
<rect x="735.4" y="544.1" class="st18" width="89.3" height="60.1"/>
<linearGradient id="SVGID_7_" gradientUnits="userSpaceOnUse" x1="596.989" y1="578.2771" x2="507.6705" y2="578.2771">
	<stop  offset="0" style="stop-color:#FF0000;stop-opacity:0"/>
	<stop  offset="0.5065" style="stop-color:#FF0000;stop-opacity:0.54"/>
	<stop  offset="1" style="stop-color:#FF0000;stop-opacity:0"/>
</linearGradient>
<rect x="507.7" y="552.4" class="st19" width="89.3" height="51.8"/>
<linearGradient id="SVGID_8_" gradientUnits="userSpaceOnUse" x1="596.989" y1="647.15" x2="507.6705" y2="647.15">
	<stop  offset="0" style="stop-color:#FF0000;stop-opacity:0"/>
	<stop  offset="0.5065" style="stop-color:#FF0000;stop-opacity:0.54"/>
	<stop  offset="1" style="stop-color:#FF0000;stop-opacity:0"/>
</linearGradient>
<rect x="507.7" y="611.4" class="st20" width="89.3" height="71.5"/>
<linearGradient id="SVGID_9_" gradientUnits="userSpaceOnUse" x1="824.7255" y1="659.6" x2="735.4071" y2="659.6">
	<stop  offset="0" style="stop-color:#FF0000;stop-opacity:0"/>
	<stop  offset="0.5065" style="stop-color:#FF0000;stop-opacity:0.54"/>
	<stop  offset="1" style="stop-color:#FF0000;stop-opacity:0"/>
</linearGradient>
<rect x="735.4" y="611.4" class="st21" width="89.3" height="96.4"/>
<linearGradient id="SVGID_10_" gradientUnits="userSpaceOnUse" x1="597.0889" y1="119" x2="507.7705" y2="119">
	<stop  offset="0" style="stop-color:#FF0000;stop-opacity:0"/>
	<stop  offset="0.5065" style="stop-color:#FF0000;stop-opacity:0.54"/>
	<stop  offset="1" style="stop-color:#FF0000;stop-opacity:0"/>
</linearGradient>
<rect x="507.8" y="96.5" class="st22" width="89.3" height="45"/>
<linearGradient id="SVGID_11_" gradientUnits="userSpaceOnUse" x1="597.0889" y1="183.5302" x2="507.7705" y2="183.5302">
	<stop  offset="0" style="stop-color:#FF0000;stop-opacity:0"/>
	<stop  offset="0.5065" style="stop-color:#FF0000;stop-opacity:0.54"/>
	<stop  offset="1" style="stop-color:#FF0000;stop-opacity:0"/>
</linearGradient>
<rect x="507.8" y="148.1" class="st23" width="89.3" height="70.9"/>
<linearGradient id="SVGID_12_" gradientUnits="userSpaceOnUse" x1="1109.2888" y1="333.2446" x2="1019.9705" y2="333.2446">
	<stop  offset="0" style="stop-color:#FF0000;stop-opacity:0"/>
	<stop  offset="0.5065" style="stop-color:#FF0000;stop-opacity:0.54"/>
	<stop  offset="1" style="stop-color:#FF0000;stop-opacity:0"/>
</linearGradient>
<rect x="1020" y="291.2" class="st24" width="89.3" height="84.1"/>
<linearGradient id="SVGID_13_" gradientUnits="userSpaceOnUse" x1="1109.2888" y1="428.3" x2="1019.9705" y2="428.3">
	<stop  offset="0" style="stop-color:#FF0000;stop-opacity:0"/>
	<stop  offset="0.5065" style="stop-color:#FF0000;stop-opacity:0.54"/>
	<stop  offset="1" style="stop-color:#FF0000;stop-opacity:0"/>
</linearGradient>
<rect x="1020" y="381.3" class="st25" width="89.3" height="94"/>
<linearGradient id="SVGID_14_" gradientUnits="userSpaceOnUse" x1="1109.2888" y1="576.35" x2="1019.9705" y2="576.35">
	<stop  offset="0" style="stop-color:#FF0000;stop-opacity:0"/>
	<stop  offset="0.5065" style="stop-color:#FF0000;stop-opacity:0.54"/>
	<stop  offset="1" style="stop-color:#FF0000;stop-opacity:0"/>
</linearGradient>
<rect x="1020" y="547.2" class="st26" width="89.3" height="58.3"/>
<linearGradient id="SVGID_15_" gradientUnits="userSpaceOnUse" x1="1109.2888" y1="782.25" x2="1019.9705" y2="782.25">
	<stop  offset="0" style="stop-color:#FF0000;stop-opacity:0"/>
	<stop  offset="0.5065" style="stop-color:#FF0000;stop-opacity:0.54"/>
	<stop  offset="1" style="stop-color:#FF0000;stop-opacity:0"/>
</linearGradient>
<rect x="1020" y="772.2" class="st27" width="89.3" height="20.1"/>
<linearGradient id="SVGID_16_" gradientUnits="userSpaceOnUse" x1="1052.0889" y1="658.35" x2="962.7705" y2="658.35">
	<stop  offset="0" style="stop-color:#FF0000;stop-opacity:0"/>
	<stop  offset="0.5065" style="stop-color:#FF0000;stop-opacity:0.54"/>
	<stop  offset="1" style="stop-color:#FF0000;stop-opacity:0"/>
</linearGradient>
<rect x="962.8" y="611.4" class="st28" width="89.3" height="93.9"/>
<linearGradient id="SVGID_17_" gradientUnits="userSpaceOnUse" x1="1052.0889" y1="782.0471" x2="962.7705" y2="782.0471">
	<stop  offset="0" style="stop-color:#FF0000;stop-opacity:0"/>
	<stop  offset="0.5065" style="stop-color:#FF0000;stop-opacity:0.54"/>
	<stop  offset="1" style="stop-color:#FF0000;stop-opacity:0"/>
</linearGradient>
<rect x="962.8" y="772.4" class="st29" width="89.3" height="19.3"/>
<linearGradient id="SVGID_18_" gradientUnits="userSpaceOnUse" x1="1037.2025" y1="804.95" x2="977.6569" y2="804.95">
	<stop  offset="0" style="stop-color:#FF0000;stop-opacity:0"/>
	<stop  offset="0.5065" style="stop-color:#FF0000;stop-opacity:0.54"/>
	<stop  offset="1" style="stop-color:#FF0000;stop-opacity:0"/>
</linearGradient>
<rect x="977.7" y="798.3" class="st30" width="59.5" height="13.3"/>
<linearGradient id="SVGID_19_" gradientUnits="userSpaceOnUse" x1="938.1889" y1="804.95" x2="848.8705" y2="804.95">
	<stop  offset="0" style="stop-color:#FF0000;stop-opacity:0"/>
	<stop  offset="0.5065" style="stop-color:#FF0000;stop-opacity:0.54"/>
	<stop  offset="1" style="stop-color:#FF0000;stop-opacity:0"/>
</linearGradient>
<rect x="848.9" y="798.3" class="st31" width="89.3" height="13.3"/>
<linearGradient id="SVGID_20_" gradientUnits="userSpaceOnUse" x1="525.8828" y1="804.95" x2="466.3372" y2="804.95">
	<stop  offset="0" style="stop-color:#FF0000;stop-opacity:0"/>
	<stop  offset="0.5065" style="stop-color:#FF0000;stop-opacity:0.54"/>
	<stop  offset="1" style="stop-color:#FF0000;stop-opacity:0"/>
</linearGradient>
<rect x="466.3" y="798.3" class="st32" width="59.5" height="13.3"/>
<linearGradient id="SVGID_21_" gradientUnits="userSpaceOnUse" x1="540.7692" y1="780.329" x2="451.4508" y2="780.329">
	<stop  offset="0" style="stop-color:#FF0000;stop-opacity:0"/>
	<stop  offset="0.5065" style="stop-color:#FF0000;stop-opacity:0.54"/>
	<stop  offset="1" style="stop-color:#FF0000;stop-opacity:0"/>
</linearGradient>
<rect x="451.5" y="768.4" class="st33" width="89.3" height="23.9"/>
<linearGradient id="SVGID_22_" gradientUnits="userSpaceOnUse" x1="1109.2888" y1="107.65" x2="1019.9705" y2="107.65">
	<stop  offset="0" style="stop-color:#FF0000;stop-opacity:0"/>
	<stop  offset="0.5065" style="stop-color:#FF0000;stop-opacity:0.54"/>
	<stop  offset="1" style="stop-color:#FF0000;stop-opacity:0"/>
</linearGradient>
<rect x="1020" y="73.8" class="st34" width="89.3" height="67.7"/>
</svg>
