<?xml version="1.0" encoding="utf-8"?>
<!-- Generator: Adobe Illustrator 23.1.1, SVG Export Plug-In . SVG Version: 6.00 Build 0)  -->
<svg version="1.1" xmlns="http://www.w3.org/2000/svg" xmlns:xlink="http://www.w3.org/1999/xlink" x="0px" y="0px"
	 viewBox="0 0 1538.95 865.66" style="enable-background:new 0 0 1538.95 865.66;" xml:space="preserve">
<style type="text/css">
	.st0{fill:url(#SVGID_1_);}
	.st1{fill:url(#SVGID_2_);}
	.st2{fill:url(#SVGID_3_);}
	.st3{fill:url(#SVGID_4_);}
	.st4{fill:url(#SVGID_5_);}
	.st5{fill:url(#SVGID_6_);}
	.st6{fill:url(#SVGID_7_);}
	.st7{fill:url(#SVGID_8_);}
	.st8{fill:none;stroke:#B09E70;stroke-width:0.75;stroke-miterlimit:10;}
	.st9{fill:none;stroke:#333333;stroke-width:1.067;stroke-linejoin:round;stroke-miterlimit:10;}
	.st10{font-family:'Inter-Regular';}
	.st11{font-size:8px;}
	.st12{fill:none;stroke:#8A3D2B;stroke-miterlimit:10;}
</style>
<g id="Livello_1">
	<linearGradient id="SVGID_1_" gradientUnits="userSpaceOnUse" x1="1453.5057" y1="204.614" x2="77.5057" y2="204.614">
		<stop  offset="0" style="stop-color:#F4DAE3;stop-opacity:0.7"/>
		<stop  offset="1" style="stop-color:#C396BD"/>
	</linearGradient>
	<path class="st0" d="M77.51,167.83h1376v9.91l-59.83,2.02l-59.83,5.62l-59.83,8.64l-59.83,6.12l-59.83,10.54l-59.83,25.3
		l-59.83,5.43l-59.83-5.24l-59.83-6.18l-59.83,1.58l-59.82,4.42l-59.83,5.17l-59.83-10.85l-59.83-1.26l-59.83-0.25l-59.83,10.54
		l-59.83-11.1l-59.83-30.92l-59.83-20.13l-59.83-2.71l-59.83-5.43l-59.83,1.96l-59.82,2.65V167.83z"/>
	<linearGradient id="SVGID_2_" gradientUnits="userSpaceOnUse" x1="77.5057" y1="127.7167" x2="1453.5057" y2="127.7167">
		<stop  offset="0" style="stop-color:#F4DAE3;stop-opacity:0.7"/>
		<stop  offset="1" style="stop-color:#C396BD"/>
	</linearGradient>
	<path class="st1" d="M77.51,157.62l59.82,0.32l59.83,2.78l59.83-3.98l59.83-2.08l59.83-10.03l59.83-17.48l59.83-10.6l59.83,0.06
		l59.83-4.61l59.83-7.26l59.83-4.73l59.83,2.15l59.82,5.55l59.83,1.64l59.83-4.48l59.83-11.04l59.83,6.25l59.83,19.31l59.83,10.54
		l59.83,10.16l59.83,7.26l59.83,3.85l59.83,3.34v7.07h-1376V157.62z"/>
	<linearGradient id="SVGID_3_" gradientUnits="userSpaceOnUse" x1="1453.5057" y1="429.8093" x2="77.5057" y2="429.8093">
		<stop  offset="0" style="stop-color:#F4DAE3;stop-opacity:0.7"/>
		<stop  offset="1" style="stop-color:#C396BD"/>
	</linearGradient>
	<path class="st2" d="M77.51,380.78h1376v11.61l-59.83,4.92l-59.83,6.75l-59.83,8.96l-59.83,10.22l-59.83,12.75l-59.83,23.34
		l-59.83,15.52l-59.83-6.06l-59.83-3.85l-59.83,5.8l-59.82,3.47l-59.83,4.61l-59.83-5.05l-59.83-9.78l-59.83-6.94l-59.83,4.98
		l-59.83-7.57l-59.83-38.93l-59.83-22.02l-59.83-4.86l-59.83-7.32l-59.83,5.36l-59.82,2.08V380.78z"/>
	<linearGradient id="SVGID_4_" gradientUnits="userSpaceOnUse" x1="77.5057" y1="329.7335" x2="1453.5057" y2="329.7335">
		<stop  offset="0" style="stop-color:#F4DAE3;stop-opacity:0.7"/>
		<stop  offset="1" style="stop-color:#C396BD"/>
	</linearGradient>
	<path class="st3" d="M77.51,367.59l59.82,1.7l59.83,4.67l59.83-8.83l59.83-2.46l59.83-15.27l59.83-25.49l59.83-12.68l59.83,6.18
		l59.83-15.52l59.83-4.23l59.83-10.98l59.83,4.8l59.82,8.71l59.83,0.06l59.83-5.55l59.83-3.72l59.83,3.22l59.83,25.62l59.83,14.51
		l59.83,11.1l59.83,10.1l59.83,6.69l59.83,2.4v12.18h-1376V367.59z"/>
	<linearGradient id="SVGID_5_" gradientUnits="userSpaceOnUse" x1="1453.5057" y1="637.5589" x2="77.5057" y2="637.5589">
		<stop  offset="0" style="stop-color:#F4DAE3;stop-opacity:0.7"/>
		<stop  offset="1" style="stop-color:#C396BD"/>
	</linearGradient>
	<path class="st4" d="M77.51,589.39h1376v14.2l-59.83,3.79l-59.83,6.18l-59.83,8.83l-59.83,11.48l-59.83,12.11l-59.83,29.4
		l-59.83,6.31l-59.83,1.58l-59.83-3.91l-59.83-4.04l-59.82,8.52l-59.83,1.89l-59.83-3.34l-59.83-10.41l-59.83-7.57l-59.83-3.53
		l-59.83-12.56l-59.83-31.42l-59.83-16.15l-59.83-2.52l-59.83-7.57l-59.83,4.61l-59.82,3.28V589.39z"/>
	<linearGradient id="SVGID_6_" gradientUnits="userSpaceOnUse" x1="77.5057" y1="552.752" x2="1453.5057" y2="552.752">
		<stop  offset="0" style="stop-color:#F4DAE3;stop-opacity:0.7"/>
		<stop  offset="1" style="stop-color:#C396BD"/>
	</linearGradient>
	<path class="st5" d="M77.51,578.65l59.82,1.52l59.83,3.03l59.83-5.17l59.83-1.39l59.83-12.37l59.83-23.41l59.83-10.41l59.83,6.81
		l59.83-1.2l59.83-5.61l59.83-8.33l59.83,5.17l59.82,3.09l59.83,4.35l59.83-5.3l59.83-4.1l59.83,5.87l59.83,15.21l59.83,9.4
		l59.83,7.44l59.83,5.81l59.83,5.17l59.83,2.08v7.07h-1376V578.65z"/>
	<linearGradient id="SVGID_7_" gradientUnits="userSpaceOnUse" x1="77.5057" y1="740.6577" x2="1453.5057" y2="740.6577">
		<stop  offset="0" style="stop-color:#F4DAE3;stop-opacity:0.7"/>
		<stop  offset="1" style="stop-color:#C396BD"/>
	</linearGradient>
	<path class="st6" d="M77.51,751.92l59.82,0.25l59.83,0.13l59.83-0.63l59.83-1.64l59.83-8.83l59.83-12.18l59.83,1.77l59.83,5.05
		l59.83-1.01l59.83-1.39l59.83,0.19l59.83,0.38l59.82,0.76l59.83,2.14l59.83-4.54l59.83-0.13l59.83,1.26l59.83,5.11l59.83,4.04
		l59.83,3.85l59.83,2.65l59.83,1.32l59.83,0.69v1.14h-1376V751.92z"/>
	<linearGradient id="SVGID_8_" gradientUnits="userSpaceOnUse" x1="1453.5057" y1="765.2085" x2="77.5057" y2="765.2085">
		<stop  offset="0" style="stop-color:#F4DAE3;stop-opacity:0.7"/>
		<stop  offset="1" style="stop-color:#C396BD"/>
	</linearGradient>
	<path class="st7" d="M77.51,758.3h1376v0.76l-59.83,0.38l-59.83,1.77l-59.83,2.46l-59.83,0.32l-59.83,3.41l-59.83,2.52l-59.83,0.38
		l-59.83,1.33l-59.83-1.2l-59.83,1.01l-59.82-2.02l-59.83-1.83l-59.83-0.82l-59.83,2.46l-59.83-1.07l-59.83,2.4l-59.83,1.58
		l-59.83-7.7l-59.83-5.17l-59.83-0.76h-59.83l-59.83,0.06l-59.82,0.06V758.3z"/>
	<g>
		<g>
			<path class="st8" d="M57.62,161.6h14.59V67.16"/>
			<path class="st8" d="M57.62,130.05h14.59"/>
			<path class="st8" d="M57.62,98.5h14.59"/>
			<path class="st8" d="M57.62,66.95h14.59"/>
		</g>
	</g>
	<g>
		<g>
			<path class="st8" d="M57.62,230.92h14.59"/>
			<path class="st8" d="M57.62,199.38h14.59"/>
			<path class="st8" d="M57.62,262.47h14.59v-94.64H57.62"/>
		</g>
	</g>
	<g>
		<path class="st9" d="M-1169.38,692.6h2.74"/>
		<path class="st9" d="M-1169.38,661.05h2.74"/>
		<path class="st9" d="M-1169.38,629.5h2.74"/>
		<path class="st9" d="M-1169.38,597.95h2.74"/>
	</g>
	<text transform="matrix(1 0 0 1 47.9076 166.993)" class="st10 st11">0</text>
	<text transform="matrix(1 0 0 1 38.0438 129.3684)" class="st10 st11">500</text>
	<text transform="matrix(1 0 0 1 38.0438 198.3684)" class="st10 st11">500</text>
	<text transform="matrix(1 0 0 1 34.3734 98.212)" class="st10 st11">1000</text>
	<text transform="matrix(1 0 0 1 34.3734 230.212)" class="st10 st11">1000</text>
	<text transform="matrix(1 0 0 1 34.5101 66.6639)" class="st10 st11">1500</text>
	<text transform="matrix(1 0 0 1 34.5101 261.9968)" class="st10 st11">1500</text>
	<text transform="matrix(1 0 0 1 135.5647 63.4778)" class="st10 st11">1</text>
	<text transform="matrix(1 0 0 1 194.7375 63.4778)" class="st10 st11">2</text>
	<text transform="matrix(1 0 0 1 254.4386 63.4778)" class="st10 st11">3</text>
	<text transform="matrix(1 0 0 1 314.2419 63.4778)" class="st10 st11">4</text>
	<text transform="matrix(1 0 0 1 374.2045 63.4778)" class="st10 st11">5</text>
	<text transform="matrix(1 0 0 1 433.9681 63.4778)" class="st10 st11">6</text>
	<text transform="matrix(1 0 0 1 494.0042 63.4778)" class="st10 st11">7</text>
	<text transform="matrix(1 0 0 1 553.6486 63.4778)" class="st10 st11">8</text>
	<text transform="matrix(1 0 0 1 613.4464 63.4778)" class="st10 st11">9</text>
	<text transform="matrix(1 0 0 1 671.4995 63.4778)" class="st10 st11">10</text>
	<text transform="matrix(1 0 0 1 732.0585 63.4778)" class="st10 st11">11</text>
	<text transform="matrix(1 0 0 1 791.2312 63.4778)" class="st10 st11">12</text>
	<text transform="matrix(1 0 0 1 850.9323 63.4778)" class="st10 st11">13</text>
	<text transform="matrix(1 0 0 1 910.736 63.4778)" class="st10 st11">14</text>
	<text transform="matrix(1 0 0 1 970.6982 63.4778)" class="st10 st11">15</text>
	<text transform="matrix(1 0 0 1 1030.4619 63.4778)" class="st10 st11">16</text>
	<text transform="matrix(1 0 0 1 1090.4984 63.4778)" class="st10 st11">17</text>
	<text transform="matrix(1 0 0 1 1150.1423 63.4778)" class="st10 st11">18</text>
	<text transform="matrix(1 0 0 1 1209.9402 63.4778)" class="st10 st11">19</text>
	<text transform="matrix(1 0 0 1 1269.1071 63.4778)" class="st10 st11">20</text>
	<text transform="matrix(1 0 0 1 1329.666 63.4778)" class="st10 st11">21</text>
	<text transform="matrix(1 0 0 1 1388.8389 63.4778)" class="st10 st11">22</text>
	<text transform="matrix(1 0 0 1 1448.5399 63.4778)" class="st10 st11">23</text>
</g>
<g id="Livello_3">
	<circle class="st12" cx="1034.72" cy="93.83" r="6"/>
	<circle class="st12" cx="1094.55" cy="100.08" r="6"/>
	<circle class="st12" cx="1095.01" cy="292.19" r="6"/>
	<circle class="st12" cx="735.59" cy="100.02" r="6"/>
	<circle class="st12" cx="1034.72" cy="241.4" r="6"/>
	<circle class="st12" cx="1035.01" cy="288.97" r="6"/>
	<circle class="st12" cx="1035.01" cy="475.16" r="6"/>
	<circle class="st12" cx="735.59" cy="284.68" r="6"/>
	<circle class="st12" cx="735.59" cy="241.15" r="6"/>
	<circle class="st12" cx="496.29" cy="239.32" r="6"/>
	<circle class="st12" cx="735.51" cy="478.83" r="6"/>
	<circle class="st12" cx="676.01" cy="473.98" r="6"/>
</g>
</svg>
